<?xml version="1.0" standalone="no"?><!DOCTYPE svg PUBLIC "-//W3C//DTD SVG 1.1//EN" "http://www.w3.org/Graphics/SVG/1.1/DTD/svg11.dtd"><svg t="1758865708035" class="icon" viewBox="0 0 1024 1024" version="1.1" xmlns="http://www.w3.org/2000/svg" p-id="23425" id="mx_n_1758865708036" data-spm-anchor-id="a313x.search_index.0.i17.72573a81u3wo4r" xmlns:xlink="http://www.w3.org/1999/xlink" width="200" height="200"><path d="M768.03584 354.84672l184.7296-184.33536c26.69568-26.5984 26.69568-69.7856 0.09728-96.4864-26.5984-26.5984-69.68832-26.5984-96.38912-0.09728L671.54944 258.4576c-1.21856 0.14848-2.26816 0.27136-3.31776 0.38912h-0.01536l-3.33824 0.39936c-71.0656-41.22624-153.41568-41.03168-216.7296 19.4304-1.86368 1.7664-1.96096 5.00736-0.09728 6.87104l292.89472 292.89472c1.86368 1.86368 5.10464 1.7664 6.87104-0.09728 60.3648-63.4112 60.55936-145.664 19.43552-216.7296 0.128-1.65376 0.29696-2.93376 0.47616-4.33152 0.1024-0.75264 0.2048-1.54112 0.3072-2.43712zM275.00544 206.04416a58.30144 58.30144 0 1 0 116.608 0 58.30144 58.30144 0 0 0-116.608 0z m374.54848 695.92064a73.02656 73.02656 0 1 1 103.28064-103.28064 73.02656 73.02656 0 0 1-103.28064 103.28064z m141.25568-128.78336a39.75168 39.75168 0 1 0 79.50848 0 39.75168 39.75168 0 0 0-79.50848 0z m-102.76864-148.70528L396.032 332.56448a6.16448 6.16448 0 0 0-8.04864-0.88064c-101.39648 69.98016-310.272 113.36704-335.29856 118.3744-1.37216 0.29184-1.86368 1.76128-1.1776 2.944l52.61312 98.7392c0.49152 0.88576 1.56672 1.28 2.54976 0.98304l142.22848-50.35008s-101.00224 85.58592-118.86592 100.01408c-0.68608 0.59392-0.68608 1.18272-0.29696 1.8688 17.85344 32.11264 79.24736 100.096 89.47712 111.42144l0.33792 0.37376c0.68608 0.78848 1.664 0.88576 2.54976 0.39424l187.5712-112.4864s-110.32576 143.40608-131.52256 169.11872c-0.5888 0.5888-0.49152 1.18272 0 1.8688 32.19456 43.67872 136.52992 113.85856 136.52992 113.85856l26.5984-36.61312c46.2336-67.04128 107.97056-132.608 117.59104-142.22336 9.11872-9.11872-79.8976 177.34656-89.39008 197.2224l-0.03072 0.06656c-0.4864 0.98304-0.09728 2.05824 0.78848 2.65216l99.13344 59.776a2.07872 2.07872 0 0 0 3.0464-1.57184c21.2992-176.68096 100.89984-310.36416 116.70528-335.5904 1.56672-2.65216 1.0752-5.888-1.08032-8.04864z" fill="#f5222d" p-id="23426" data-spm-anchor-id="a313x.search_index.0.i16.72573a81u3wo4r" class="selected"></path></svg>